<?xml version="1.0" encoding="UTF-8"?>
<svg width="32" height="32" version="1.1" viewBox="0 0 32 32" xmlns="http://www.w3.org/2000/svg" xmlns:cc="http://creativecommons.org/ns#" xmlns:dc="http://purl.org/dc/elements/1.1/" xmlns:rdf="http://www.w3.org/1999/02/22-rdf-syntax-ns#">
 <title>favicon</title>
 <metadata>
  <rdf:RDF>
   <cc:Work rdf:about="">
    <dc:format>image/svg+xml</dc:format>
    <dc:type rdf:resource="http://purl.org/dc/dcmitype/StillImage"/>
    <dc:title>favicon</dc:title>
   </cc:Work>
  </rdf:RDF>
 </metadata>
 <g transform="matrix(3.7323 0 0 3.7323 -379.53 -343.03)">
  <g transform="matrix(.063768 0 0 .06373 99.217 90.066)">
   <g transform="translate(-.32905 .42567)">
    <ellipse transform="rotate(-40.376)" cx="14.745" cy="105.22" rx="39.478" ry="39.478" fill="#766400" fill-opacity=".72941"/>
    <g transform="rotate(-40.376 123.17 90.786)">
     <ellipse cx="105" cy="46.83" rx="39.478" ry="39.478" fill="#fbd400" stroke="#816d00" stroke-linecap="round" stroke-width=".5"/>
     <circle cx="105" cy="46.83" r="35" fill="#e8c300" stroke="#c0a400" stroke-linecap="round" stroke-width=".92604"/>
     <g fill="#fbd400" stroke="#766400">
      <g transform="matrix(.26458 0 0 .26458 20.045 -24.582)" style="font-feature-settings:normal;font-variant-caps:normal;font-variant-ligatures:normal;font-variant-numeric:normal" aria-label="0">
       <path d="m406.37 187.57q9.0938 0 15.562 5.3438 6.4688 5.25 9.2812 14.062 2.9062 8.8125 2.9062 17.438 0 14.906-3.9375 30.75-3.8438 15.844-10.781 29.156t-15.375 22.312q-5.3438 5.625-13.031 9.4688-7.5938 3.8438-15.562 3.8438-7.4062 0-13.5-4.5-6-4.5-9.4688-13.125t-3.4688-18.469q0-21.562 7.7812-43.219 6.4688-18 16.031-31.031 9.6562-13.125 17.531-17.531 7.9688-4.5 16.031-4.5zm0.65625 6.375q-2.8125 0-4.875 1.125-2.0625 1.0312-4.5 4.3125-2.3438 3.2812-5.9062 13.969-6.6562 19.5-14.719 47.625-6.1875 21.656-7.4062 27.75-1.7812 8.7188-1.7812 15.281 0 4.5938 2.4375 7.2188 2.5312 2.625 6.1875 2.625 3.8438 0 6.2812-2.0625 4.9688-4.2188 8.25-14.25 7.6875-23.531 19.406-64.781 5.1562-18.188 5.1562-28.594 0-4.7812-2.5312-7.5-2.4375-2.7188-6-2.7188z" fill="#fbd400" stroke="#766400" style="font-feature-settings:normal;font-variant-caps:normal;font-variant-ligatures:normal;font-variant-numeric:normal"/>
      </g>
      <g transform="matrix(.26458 0 0 .26458 1.3036 -24.234)" style="font-feature-settings:normal;font-variant-caps:normal;font-variant-ligatures:normal;font-variant-numeric:normal" aria-label="1">
       <path d="m423.81 187.57-31.031 106.69q-2.4375 8.3438-2.4375 10.594t1.6875 4.6875q1.7812 2.3438 3.75 3.0938 2.0625 0.65625 12.188 1.2188l-1.0312 3.4688h-64.031l1.0312-3.4688q9.5625-0.1875 13.312-1.5938t6.0938-4.5938q2.4375-3.1875 5.4375-13.406l18.375-63.375q4.2188-14.438 4.4062-15.281 0.5625-2.4375 0.5625-4.5938 0-4.2188-2.625-6.6562-2.5312-2.5312-7.3125-2.5312-2.3438 0-9.2812 0.75l-0.75-3.4688 47.719-11.531z" fill="#fbd400" stroke="#766400" style="font-feature-settings:normal;font-variant-caps:normal;font-variant-ligatures:normal;font-variant-numeric:normal"/>
      </g>
      <g transform="matrix(.26458 0 0 .26458 2.5389 19.331)" style="font-feature-settings:normal;font-variant-caps:normal;font-variant-ligatures:normal;font-variant-numeric:normal" aria-label="CENT">
       <path d="m384.53 160.91-3.125 13.469h-1.2188q-0.21875-5.5-2.7188-8.1875-2.4688-2.7188-6.4688-2.7188-4.3125 0-8.5938 3.6875t-7.25 11.281q-2.4062 6.1562-2.4062 12.156 0 5.375 2.625 8.2188 2.6562 2.8125 7.25 2.8125 3.7188 0 6.7812-1.625t6.1875-5.2812h1.5q-3.875 5.8125-7.8438 8.1562-3.9375 2.3438-9.6562 2.3438-7.6562 0-12.344-4.625-4.6562-4.6562-4.6562-12.125 0-7 3.7188-13.344 3.7188-6.375 10.688-10.281 7-3.9375 13.906-3.9375 2.625 0 6.5312 1.125 2 0.5625 2.7812 0.5625 1.5625 0 3.1562-1.6875z" style="font-feature-settings:normal;font-variant-caps:normal;font-variant-ligatures:normal;font-variant-numeric:normal"/>
       <path d="m397.28 177.57-3.1458 10.958h0.95833q3.7917 0 5.5208-1 1.75-1 2.9583-3.5417h0.77083l-3.1667 11h-0.72916q0.1875-1.1042 0.1875-1.7917 0-1.1458-0.6875-1.875-0.66667-0.72917-1.75-1.0417-0.70834-0.20833-2.9375-0.20833h-1.625l-2.7083 9.4792q-0.35416 1.25-0.35416 1.8542 0 0.47917 0.45833 0.77084 0.66667 0.41666 2.5208 0.41666 3.5625 0 6.7083-1.5 3.1458-1.5208 5.6458-4.5833h0.85417l-2.9375 7.75h-24.167l0.25-0.77083q2.125 0 3.1042-0.79167 0.97916-0.8125 1.7708-3.5417l5.3125-18.188q0.4375-1.5208 0.4375-2.3958 0-0.79167-0.5625-1.2083-0.5625-0.4375-2.5625-0.58334l0.22917-0.77083h22.521l-1.8125 7.0625h-0.75q-0.0833-2.0833-0.64583-2.9375-0.875-1.3333-2.3333-1.9375-1.4375-0.625-4.6875-0.625z" style="font-feature-settings:normal;font-variant-caps:normal;font-variant-ligatures:normal;font-variant-numeric:normal"/>
       <path d="m424.86 176.01 8.8333 18.833 3.9792-13.667q0.3125-1.125 0.3125-2 0-1.0417-0.66666-1.6667-0.64584-0.625-2.25-0.72917l0.22916-0.77083h8.9583l-0.20834 0.77083q-1.7083 0.10417-2.8333 0.95834-1.1042 0.85416-1.875 3.4375l-6.8958 23.396h-0.79167l-11.333-24.083-5.4792 18.771q-0.27083 0.97917-0.27083 1.75 0 1.125 0.72916 1.8125 0.75 0.66667 2.375 0.66667l-0.1875 0.77083h-9.2083l0.1875-0.77083q1.1875 0 1.6875-0.20834 0.875-0.33333 1.7083-1.2708 0.83334-0.95833 1.3542-2.75l5.9792-20.521q-1.1042-1.2292-1.8542-1.5833-0.75-0.35416-2.25-0.375l0.22917-0.77083z" style="font-feature-settings:normal;font-variant-caps:normal;font-variant-ligatures:normal;font-variant-numeric:normal"/>
       <path d="m447.32 176.01h22.729l-2.1458 7.6042h-0.75q0.0417-0.60417 0.0417-1.0625 0-2.1667-1.2708-3.3542-1.2708-1.2083-4.2917-1.375l-6.2917 21.271q-0.52083 1.7708-0.52083 2.625 0 0.79167 0.64583 1.2708 0.64584 0.45833 2.625 0.5l-0.1875 0.77083h-14.021l0.25-0.77083q2.1458 0 3.125-0.79167 0.97917-0.8125 1.7917-3.6042l6.2917-21.271q-3.25 0.10417-5.4375 1.4167t-4 4.375h-0.8125z" style="font-feature-settings:normal;font-variant-caps:normal;font-variant-ligatures:normal;font-variant-numeric:normal"/>
      </g>
     </g>
    </g>
   </g>
   <g transform="translate(-29.294 .50213)">
    <ellipse transform="rotate(-40.376)" cx="57.366" cy="179.75" rx="39.478" ry="39.478" fill="#766400" fill-opacity=".72941"/>
    <ellipse transform="rotate(-40.376)" cx="59.88" cy="179.55" rx="39.478" ry="39.478" fill="#fbd400" stroke="#816d00" stroke-linecap="round" stroke-width=".5"/>
    <circle transform="rotate(-40.376)" cx="59.88" cy="179.55" r="35" fill="#e8c300" stroke="#c0a400" stroke-linecap="round" stroke-width=".92604"/>
    <g fill="#fbd400" stroke="#766400">
     <g transform="matrix(.20156 -.1714 .1714 .20156 50.947 98.62)" style="font-feature-settings:normal;font-variant-caps:normal;font-variant-ligatures:normal;font-variant-numeric:normal" aria-label="0">
      <path d="m406.37 187.57q9.0938 0 15.562 5.3438 6.4688 5.25 9.2812 14.062 2.9062 8.8125 2.9062 17.438 0 14.906-3.9375 30.75-3.8438 15.844-10.781 29.156t-15.375 22.312q-5.3438 5.625-13.031 9.4688-7.5938 3.8438-15.562 3.8438-7.4062 0-13.5-4.5-6-4.5-9.4688-13.125t-3.4688-18.469q0-21.562 7.7812-43.219 6.4688-18 16.031-31.031 9.6562-13.125 17.531-17.531 7.9688-4.5 16.031-4.5zm0.65625 6.375q-2.8125 0-4.875 1.125-2.0625 1.0312-4.5 4.3125-2.3438 3.2812-5.9062 13.969-6.6562 19.5-14.719 47.625-6.1875 21.656-7.4062 27.75-1.7812 8.7188-1.7812 15.281 0 4.5938 2.4375 7.2188 2.5312 2.625 6.1875 2.625 3.8438 0 6.2812-2.0625 4.9688-4.2188 8.25-14.25 7.6875-23.531 19.406-64.781 5.1562-18.188 5.1562-28.594 0-4.7812-2.5312-7.5-2.4375-2.7188-6-2.7188z" fill="#fbd400" stroke="#766400" style="font-feature-settings:normal;font-variant-caps:normal;font-variant-ligatures:normal;font-variant-numeric:normal"/>
     </g>
     <g transform="matrix(.20156 -.1714 .1714 .20156 36.895 111.03)" style="font-feature-settings:normal;font-variant-caps:normal;font-variant-ligatures:normal;font-variant-numeric:normal" aria-label="1">
      <path d="m423.81 187.57-31.031 106.69q-2.4375 8.3438-2.4375 10.594t1.6875 4.6875q1.7812 2.3438 3.75 3.0938 2.0625 0.65625 12.188 1.2188l-1.0312 3.4688h-64.031l1.0312-3.4688q9.5625-0.1875 13.312-1.5938t6.0938-4.5938q2.4375-3.1875 5.4375-13.406l18.375-63.375q4.2188-14.438 4.4062-15.281 0.5625-2.4375 0.5625-4.5938 0-4.2188-2.625-6.6562-2.5312-2.5312-7.3125-2.5312-2.3438 0-9.2812 0.75l-0.75-3.4688 47.719-11.531z" fill="#fbd400" stroke="#766400" style="font-feature-settings:normal;font-variant-caps:normal;font-variant-ligatures:normal;font-variant-numeric:normal"/>
     </g>
     <g transform="matrix(.20156 -.1714 .1714 .20156 66.057 143.41)" style="font-feature-settings:normal;font-variant-caps:normal;font-variant-ligatures:normal;font-variant-numeric:normal" aria-label="CENT">
      <path d="m384.53 160.91-3.125 13.469h-1.2188q-0.21875-5.5-2.7188-8.1875-2.4688-2.7188-6.4688-2.7188-4.3125 0-8.5938 3.6875t-7.25 11.281q-2.4062 6.1562-2.4062 12.156 0 5.375 2.625 8.2188 2.6562 2.8125 7.25 2.8125 3.7188 0 6.7812-1.625t6.1875-5.2812h1.5q-3.875 5.8125-7.8438 8.1562-3.9375 2.3438-9.6562 2.3438-7.6562 0-12.344-4.625-4.6562-4.6562-4.6562-12.125 0-7 3.7188-13.344 3.7188-6.375 10.688-10.281 7-3.9375 13.906-3.9375 2.625 0 6.5312 1.125 2 0.5625 2.7812 0.5625 1.5625 0 3.1562-1.6875z" style="font-feature-settings:normal;font-variant-caps:normal;font-variant-ligatures:normal;font-variant-numeric:normal"/>
      <path d="m397.28 177.57-3.1458 10.958h0.95833q3.7917 0 5.5208-1 1.75-1 2.9583-3.5417h0.77083l-3.1667 11h-0.72916q0.1875-1.1042 0.1875-1.7917 0-1.1458-0.6875-1.875-0.66667-0.72917-1.75-1.0417-0.70834-0.20833-2.9375-0.20833h-1.625l-2.7083 9.4792q-0.35416 1.25-0.35416 1.8542 0 0.47917 0.45833 0.77084 0.66667 0.41666 2.5208 0.41666 3.5625 0 6.7083-1.5 3.1458-1.5208 5.6458-4.5833h0.85417l-2.9375 7.75h-24.167l0.25-0.77083q2.125 0 3.1042-0.79167 0.97916-0.8125 1.7708-3.5417l5.3125-18.188q0.4375-1.5208 0.4375-2.3958 0-0.79167-0.5625-1.2083-0.5625-0.4375-2.5625-0.58334l0.22917-0.77083h22.521l-1.8125 7.0625h-0.75q-0.0833-2.0833-0.64583-2.9375-0.875-1.3333-2.3333-1.9375-1.4375-0.625-4.6875-0.625z" style="font-feature-settings:normal;font-variant-caps:normal;font-variant-ligatures:normal;font-variant-numeric:normal"/>
      <path d="m424.86 176.01 8.8333 18.833 3.9792-13.667q0.3125-1.125 0.3125-2 0-1.0417-0.66666-1.6667-0.64584-0.625-2.25-0.72917l0.22916-0.77083h8.9583l-0.20834 0.77083q-1.7083 0.10417-2.8333 0.95834-1.1042 0.85416-1.875 3.4375l-6.8958 23.396h-0.79167l-11.333-24.083-5.4792 18.771q-0.27083 0.97917-0.27083 1.75 0 1.125 0.72916 1.8125 0.75 0.66667 2.375 0.66667l-0.1875 0.77083h-9.2083l0.1875-0.77083q1.1875 0 1.6875-0.20834 0.875-0.33333 1.7083-1.2708 0.83334-0.95833 1.3542-2.75l5.9792-20.521q-1.1042-1.2292-1.8542-1.5833-0.75-0.35416-2.25-0.375l0.22917-0.77083z" style="font-feature-settings:normal;font-variant-caps:normal;font-variant-ligatures:normal;font-variant-numeric:normal"/>
      <path d="m447.32 176.01h22.729l-2.1458 7.6042h-0.75q0.0417-0.60417 0.0417-1.0625 0-2.1667-1.2708-3.3542-1.2708-1.2083-4.2917-1.375l-6.2917 21.271q-0.52083 1.7708-0.52083 2.625 0 0.79167 0.64583 1.2708 0.64584 0.45833 2.625 0.5l-0.1875 0.77083h-14.021l0.25-0.77083q2.1458 0 3.125-0.79167 0.97917-0.8125 1.7917-3.6042l6.2917-21.271q-3.25 0.10417-5.4375 1.4167t-4 4.375h-0.8125z" style="font-feature-settings:normal;font-variant-caps:normal;font-variant-ligatures:normal;font-variant-numeric:normal"/>
     </g>
    </g>
   </g>
   <g transform="translate(-14.762 -31.919)">
    <ellipse transform="rotate(-40.376)" cx="-28.565" cy="179.26" rx="39.478" ry="39.478" fill="#766400" fill-opacity=".72768"/>
    <g transform="rotate(-40.376 246.06 112.03)">
     <ellipse cx="105" cy="46.83" rx="39.478" ry="39.478" fill="#fbd400" stroke="#816d00" stroke-linecap="round" stroke-width=".5"/>
     <circle cx="105" cy="46.83" r="35" fill="#e8c300" stroke="#c0a400" stroke-linecap="round" stroke-width=".92604"/>
     <g fill="#fbd400" stroke="#766400">
      <g transform="matrix(.26458 0 0 .26458 20.045 -24.582)" style="font-feature-settings:normal;font-variant-caps:normal;font-variant-ligatures:normal;font-variant-numeric:normal" aria-label="0">
       <path d="m406.37 187.57q9.0938 0 15.562 5.3438 6.4688 5.25 9.2812 14.062 2.9062 8.8125 2.9062 17.438 0 14.906-3.9375 30.75-3.8438 15.844-10.781 29.156t-15.375 22.312q-5.3438 5.625-13.031 9.4688-7.5938 3.8438-15.562 3.8438-7.4062 0-13.5-4.5-6-4.5-9.4688-13.125t-3.4688-18.469q0-21.562 7.7812-43.219 6.4688-18 16.031-31.031 9.6562-13.125 17.531-17.531 7.9688-4.5 16.031-4.5zm0.65625 6.375q-2.8125 0-4.875 1.125-2.0625 1.0312-4.5 4.3125-2.3438 3.2812-5.9062 13.969-6.6562 19.5-14.719 47.625-6.1875 21.656-7.4062 27.75-1.7812 8.7188-1.7812 15.281 0 4.5938 2.4375 7.2188 2.5312 2.625 6.1875 2.625 3.8438 0 6.2812-2.0625 4.9688-4.2188 8.25-14.25 7.6875-23.531 19.406-64.781 5.1562-18.188 5.1562-28.594 0-4.7812-2.5312-7.5-2.4375-2.7188-6-2.7188z" fill="#fbd400" stroke="#766400" style="font-feature-settings:normal;font-variant-caps:normal;font-variant-ligatures:normal;font-variant-numeric:normal"/>
      </g>
      <g transform="matrix(.26458 0 0 .26458 1.3036 -24.234)" style="font-feature-settings:normal;font-variant-caps:normal;font-variant-ligatures:normal;font-variant-numeric:normal" aria-label="1">
       <path d="m423.81 187.57-31.031 106.69q-2.4375 8.3438-2.4375 10.594t1.6875 4.6875q1.7812 2.3438 3.75 3.0938 2.0625 0.65625 12.188 1.2188l-1.0312 3.4688h-64.031l1.0312-3.4688q9.5625-0.1875 13.312-1.5938t6.0938-4.5938q2.4375-3.1875 5.4375-13.406l18.375-63.375q4.2188-14.438 4.4062-15.281 0.5625-2.4375 0.5625-4.5938 0-4.2188-2.625-6.6562-2.5312-2.5312-7.3125-2.5312-2.3438 0-9.2812 0.75l-0.75-3.4688 47.719-11.531z" fill="#fbd400" stroke="#766400" style="font-feature-settings:normal;font-variant-caps:normal;font-variant-ligatures:normal;font-variant-numeric:normal"/>
      </g>
      <g transform="matrix(.26458 0 0 .26458 2.5389 19.331)" style="font-feature-settings:normal;font-variant-caps:normal;font-variant-ligatures:normal;font-variant-numeric:normal" aria-label="CENT">
       <path d="m384.53 160.91-3.125 13.469h-1.2188q-0.21875-5.5-2.7188-8.1875-2.4688-2.7188-6.4688-2.7188-4.3125 0-8.5938 3.6875t-7.25 11.281q-2.4062 6.1562-2.4062 12.156 0 5.375 2.625 8.2188 2.6562 2.8125 7.25 2.8125 3.7188 0 6.7812-1.625t6.1875-5.2812h1.5q-3.875 5.8125-7.8438 8.1562-3.9375 2.3438-9.6562 2.3438-7.6562 0-12.344-4.625-4.6562-4.6562-4.6562-12.125 0-7 3.7188-13.344 3.7188-6.375 10.688-10.281 7-3.9375 13.906-3.9375 2.625 0 6.5312 1.125 2 0.5625 2.7812 0.5625 1.5625 0 3.1562-1.6875z" style="font-feature-settings:normal;font-variant-caps:normal;font-variant-ligatures:normal;font-variant-numeric:normal"/>
       <path d="m397.28 177.57-3.1458 10.958h0.95833q3.7917 0 5.5208-1 1.75-1 2.9583-3.5417h0.77083l-3.1667 11h-0.72916q0.1875-1.1042 0.1875-1.7917 0-1.1458-0.6875-1.875-0.66667-0.72917-1.75-1.0417-0.70834-0.20833-2.9375-0.20833h-1.625l-2.7083 9.4792q-0.35416 1.25-0.35416 1.8542 0 0.47917 0.45833 0.77084 0.66667 0.41666 2.5208 0.41666 3.5625 0 6.7083-1.5 3.1458-1.5208 5.6458-4.5833h0.85417l-2.9375 7.75h-24.167l0.25-0.77083q2.125 0 3.1042-0.79167 0.97916-0.8125 1.7708-3.5417l5.3125-18.188q0.4375-1.5208 0.4375-2.3958 0-0.79167-0.5625-1.2083-0.5625-0.4375-2.5625-0.58334l0.22917-0.77083h22.521l-1.8125 7.0625h-0.75q-0.0833-2.0833-0.64583-2.9375-0.875-1.3333-2.3333-1.9375-1.4375-0.625-4.6875-0.625z" style="font-feature-settings:normal;font-variant-caps:normal;font-variant-ligatures:normal;font-variant-numeric:normal"/>
       <path d="m424.86 176.01 8.8333 18.833 3.9792-13.667q0.3125-1.125 0.3125-2 0-1.0417-0.66666-1.6667-0.64584-0.625-2.25-0.72917l0.22916-0.77083h8.9583l-0.20834 0.77083q-1.7083 0.10417-2.8333 0.95834-1.1042 0.85416-1.875 3.4375l-6.8958 23.396h-0.79167l-11.333-24.083-5.4792 18.771q-0.27083 0.97917-0.27083 1.75 0 1.125 0.72916 1.8125 0.75 0.66667 2.375 0.66667l-0.1875 0.77083h-9.2083l0.1875-0.77083q1.1875 0 1.6875-0.20834 0.875-0.33333 1.7083-1.2708 0.83334-0.95833 1.3542-2.75l5.9792-20.521q-1.1042-1.2292-1.8542-1.5833-0.75-0.35416-2.25-0.375l0.22917-0.77083z" style="font-feature-settings:normal;font-variant-caps:normal;font-variant-ligatures:normal;font-variant-numeric:normal"/>
       <path d="m447.32 176.01h22.729l-2.1458 7.6042h-0.75q0.0417-0.60417 0.0417-1.0625 0-2.1667-1.2708-3.3542-1.2708-1.2083-4.2917-1.375l-6.2917 21.271q-0.52083 1.7708-0.52083 2.625 0 0.79167 0.64583 1.2708 0.64584 0.45833 2.625 0.5l-0.1875 0.77083h-14.021l0.25-0.77083q2.1458 0 3.125-0.79167 0.97917-0.8125 1.7917-3.6042l6.2917-21.271q-3.25 0.10417-5.4375 1.4167t-4 4.375h-0.8125z" style="font-feature-settings:normal;font-variant-caps:normal;font-variant-ligatures:normal;font-variant-numeric:normal"/>
      </g>
     </g>
    </g>
   </g>
  </g>
 </g>
</svg>
