<?xml version="1.0" encoding="UTF-8" standalone="no"?>
<svg
   xmlns:dc="http://purl.org/dc/elements/1.1/"
   xmlns:cc="http://creativecommons.org/ns#"
   xmlns:rdf="http://www.w3.org/1999/02/22-rdf-syntax-ns#"
   xmlns:svg="http://www.w3.org/2000/svg"
   xmlns="http://www.w3.org/2000/svg"
   style="shape-rendering:crispEdges"
   id="svg8"
   version="1.1"
   viewBox="0 0 191.66922 191.66922"
   height="21.672001mm"
   width="21.672001mm">
  <title
     id="title4613">Logo Los Chinos Game</title>
  <defs
     id="defs2" />
  <metadata
     id="metadata5">
    <rdf:RDF>
      <cc:Work
         rdf:about="">
        <dc:format>image/svg+xml</dc:format>
        <dc:type
           rdf:resource="http://purl.org/dc/dcmitype/StillImage" />
        <dc:title>Logo Los Chinos Game</dc:title>
        <dc:creator>
          <cc:Agent>
            <dc:title>peqh</dc:title>
          </cc:Agent>
        </dc:creator>
      </cc:Work>
    </rdf:RDF>
  </metadata>
  <g
     transform="translate(-15.607143,-1817.8343)"
     id="layer1">
    <g
       transform="translate(-9.3440324,1801.1964)"
       id="g4611">
      <g
         id="g4930"
         transform="translate(0,2.6458334)">
        <ellipse
           transform="rotate(-40.376104)"
           ry="39.477741"
           rx="39.477745"
           cy="105.22105"
           cx="14.744809"
           id="path4518-2-5-3"
           style="fill:#766400;fill-opacity:0.72941176;stroke:none;stroke-width:0.5;stroke-linecap:round;stroke-miterlimit:4;stroke-dasharray:none;stroke-opacity:1" />
        <g
           transform="rotate(-40.376104,123.17212,90.786204)"
           id="g4648">
          <ellipse
             style="fill:#fbd400;fill-opacity:1;stroke:#816d00;stroke-width:0.5;stroke-linecap:round;stroke-miterlimit:4;stroke-dasharray:none;stroke-opacity:1"
             id="path4518"
             cx="105"
             cy="46.830349"
             rx="39.477745"
             ry="39.477741" />
          <circle
             style="fill:#e8c300;fill-opacity:1;stroke:#c0a400;stroke-width:0.92604148;stroke-linecap:round;stroke-miterlimit:4;stroke-dasharray:none;stroke-opacity:1"
             id="path4518-3"
             cx="105"
             cy="46.830349"
             r="35" />
          <g
             id="flowRoot4535"
             style="font-style:italic;font-variant:normal;font-weight:bold;font-stretch:normal;font-size:40px;line-height:1.25;font-family:'Times New Roman';-inkscape-font-specification:'Times New Roman, Bold Italic';font-variant-ligatures:normal;font-variant-caps:normal;font-variant-numeric:normal;font-feature-settings:normal;text-align:start;letter-spacing:0px;word-spacing:0px;writing-mode:lr-tb;text-anchor:start;fill:#fbd400;fill-opacity:1;stroke:#766400;stroke-width:1;stroke-miterlimit:4;stroke-dasharray:none;stroke-opacity:1"
             transform="matrix(0.26458333,0,0,0.26458333,20.045214,-24.581529)"
             aria-label="0">
            <path
               id="path4618"
               style="font-style:italic;font-variant:normal;font-weight:bold;font-stretch:normal;font-size:192px;font-family:'Times New Roman';-inkscape-font-specification:'Times New Roman, Bold Italic';font-variant-ligatures:normal;font-variant-caps:normal;font-variant-numeric:normal;font-feature-settings:normal;text-align:start;writing-mode:lr-tb;text-anchor:start;fill:#fbd400;fill-opacity:1;stroke:#766400;stroke-width:1;stroke-miterlimit:4;stroke-dasharray:none;stroke-opacity:1"
               d="m 406.36914,187.57353 q 9.09375,0 15.5625,5.34375 6.46875,5.25 9.28125,14.0625 2.90625,8.8125 2.90625,17.4375 0,14.90625 -3.9375,30.75 -3.84375,15.84375 -10.78125,29.15625 -6.9375,13.3125 -15.375,22.3125 -5.34375,5.625 -13.03125,9.46875 -7.59375,3.84375 -15.5625,3.84375 -7.40625,0 -13.5,-4.5 -6,-4.5 -9.46875,-13.125 -3.46875,-8.625 -3.46875,-18.46875 0,-21.5625 7.78125,-43.21875 6.46875,-18 16.03125,-31.03125 9.65625,-13.125 17.53125,-17.53125 7.96875,-4.5 16.03125,-4.5 z m 0.65625,6.375 q -2.8125,0 -4.875,1.125 -2.0625,1.03125 -4.5,4.3125 -2.34375,3.28125 -5.90625,13.96875 -6.65625,19.5 -14.71875,47.625 -6.1875,21.65625 -7.40625,27.75 -1.78125,8.71875 -1.78125,15.28125 0,4.59375 2.4375,7.21875 2.53125,2.625 6.1875,2.625 3.84375,0 6.28125,-2.0625 4.96875,-4.21875 8.25,-14.25 7.6875,-23.53125 19.40625,-64.78125 5.15625,-18.1875 5.15625,-28.59375 0,-4.78125 -2.53125,-7.5 -2.4375,-2.71875 -6,-2.71875 z" />
          </g>
          <g
             id="flowRoot4535-9"
             style="font-style:italic;font-variant:normal;font-weight:bold;font-stretch:normal;font-size:40px;line-height:1.25;font-family:'Times New Roman';-inkscape-font-specification:'Times New Roman, Bold Italic';font-variant-ligatures:normal;font-variant-caps:normal;font-variant-numeric:normal;font-feature-settings:normal;text-align:start;letter-spacing:0px;word-spacing:0px;writing-mode:lr-tb;text-anchor:start;fill:#fbd400;fill-opacity:1;stroke:#766400;stroke-width:1;stroke-miterlimit:4;stroke-dasharray:none;stroke-opacity:1"
             transform="matrix(0.26458333,0,0,0.26458333,1.3035753,-24.234263)"
             aria-label="1">
            <path
               id="path4621"
               style="font-style:italic;font-variant:normal;font-weight:bold;font-stretch:normal;font-size:192px;font-family:'Times New Roman';-inkscape-font-specification:'Times New Roman, Bold Italic';font-variant-ligatures:normal;font-variant-caps:normal;font-variant-numeric:normal;font-feature-settings:normal;text-align:start;writing-mode:lr-tb;text-anchor:start;fill:#fbd400;fill-opacity:1;stroke:#766400;stroke-width:1;stroke-miterlimit:4;stroke-dasharray:none;stroke-opacity:1"
               d="m 423.80664,187.57353 -31.03125,106.6875 q -2.4375,8.34375 -2.4375,10.59375 0,2.25 1.6875,4.6875 1.78125,2.34375 3.75,3.09375 2.0625,0.65625 12.1875,1.21875 l -1.03125,3.46875 h -64.03125 l 1.03125,-3.46875 q 9.5625,-0.1875 13.3125,-1.59375 3.75,-1.40625 6.09375,-4.59375 2.4375,-3.1875 5.4375,-13.40625 l 18.375,-63.375 q 4.21875,-14.4375 4.40625,-15.28125 0.5625,-2.4375 0.5625,-4.59375 0,-4.21875 -2.625,-6.65625 -2.53125,-2.53125 -7.3125,-2.53125 -2.34375,0 -9.28125,0.75 l -0.75,-3.46875 47.71875,-11.53125 z" />
          </g>
          <g
             aria-label="CENT"
             transform="matrix(0.26458333,0,0,0.26458333,2.5388969,19.330669)"
             style="font-style:italic;font-variant:normal;font-weight:bold;font-stretch:normal;font-size:40px;line-height:1.25;font-family:'Times New Roman';-inkscape-font-specification:'Times New Roman, Bold Italic';font-variant-ligatures:normal;font-variant-caps:normal;font-variant-numeric:normal;font-feature-settings:normal;text-align:start;letter-spacing:0px;word-spacing:0px;writing-mode:lr-tb;text-anchor:start;fill:#fbd400;fill-opacity:1;stroke:#766400;stroke-width:1;stroke-miterlimit:4;stroke-dasharray:none;stroke-opacity:1"
             id="flowRoot4535-9-6">
            <path
               d="m 384.52539,160.91253 -3.125,13.46875 h -1.21875 q -0.21875,-5.5 -2.71875,-8.1875 -2.46875,-2.71875 -6.46875,-2.71875 -4.3125,0 -8.59375,3.6875 -4.28125,3.6875 -7.25,11.28125 -2.40625,6.15625 -2.40625,12.15625 0,5.375 2.625,8.21875 2.65625,2.8125 7.25,2.8125 3.71875,0 6.78125,-1.625 3.0625,-1.625 6.1875,-5.28125 h 1.5 q -3.875,5.8125 -7.84375,8.15625 -3.9375,2.34375 -9.65625,2.34375 -7.65625,0 -12.34375,-4.625 -4.65625,-4.65625 -4.65625,-12.125 0,-7 3.71875,-13.34375 3.71875,-6.375 10.6875,-10.28125 7,-3.9375 13.90625,-3.9375 2.625,0 6.53125,1.125 2,0.5625 2.78125,0.5625 1.5625,0 3.15625,-1.6875 z"
               style="font-style:italic;font-variant:normal;font-weight:bold;font-stretch:normal;font-size:64px;font-family:'Times New Roman';-inkscape-font-specification:'Times New Roman, Bold Italic';font-variant-ligatures:normal;font-variant-caps:normal;font-variant-numeric:normal;font-feature-settings:normal;text-align:start;writing-mode:lr-tb;text-anchor:start;fill:#fbd400;fill-opacity:1;stroke:#766400;stroke-width:1;stroke-miterlimit:4;stroke-dasharray:none;stroke-opacity:1"
               id="path4609" />
            <path
               d="m 397.27539,177.56878 -3.14583,10.95833 h 0.95833 q 3.79167,0 5.52083,-1 1.75,-1 2.95834,-3.54166 h 0.77083 l -3.16667,11 h -0.72916 q 0.1875,-1.10417 0.1875,-1.79167 0,-1.14583 -0.6875,-1.875 -0.66667,-0.72917 -1.75,-1.04167 -0.70834,-0.20833 -2.9375,-0.20833 h -1.625 l -2.70834,9.47917 q -0.35416,1.25 -0.35416,1.85416 0,0.47917 0.45833,0.77084 0.66667,0.41666 2.52083,0.41666 3.5625,0 6.70834,-1.5 3.14583,-1.52083 5.64583,-4.58333 h 0.85417 l -2.9375,7.75 h -24.16667 l 0.25,-0.77083 q 2.125,0 3.10417,-0.79167 0.97916,-0.8125 1.77083,-3.54167 l 5.3125,-18.1875 q 0.4375,-1.52083 0.4375,-2.39583 0,-0.79167 -0.5625,-1.20833 -0.5625,-0.4375 -2.5625,-0.58334 l 0.22917,-0.77083 h 22.52083 l -1.8125,7.0625 h -0.75 q -0.0833,-2.08333 -0.64583,-2.9375 -0.875,-1.33333 -2.33334,-1.9375 -1.4375,-0.625 -4.6875,-0.625 z"
               style="font-style:italic;font-variant:normal;font-weight:bold;font-stretch:normal;font-size:42.66666794px;font-family:'Times New Roman';-inkscape-font-specification:'Times New Roman, Bold Italic';font-variant-ligatures:normal;font-variant-caps:normal;font-variant-numeric:normal;font-feature-settings:normal;text-align:start;writing-mode:lr-tb;text-anchor:start;fill:#fbd400;fill-opacity:1;stroke:#766400;stroke-width:1;stroke-miterlimit:4;stroke-dasharray:none;stroke-opacity:1"
               id="path4611" />
            <path
               d="m 424.85872,176.00628 8.83334,18.83333 3.97916,-13.66666 q 0.3125,-1.125 0.3125,-2 0,-1.04167 -0.66666,-1.66667 -0.64584,-0.625 -2.25,-0.72917 l 0.22916,-0.77083 h 8.95834 l -0.20834,0.77083 q -1.70833,0.10417 -2.83333,0.95834 -1.10417,0.85416 -1.875,3.4375 l -6.89583,23.39583 h -0.79167 l -11.33333,-24.08333 -5.47917,18.77083 q -0.27083,0.97917 -0.27083,1.75 0,1.125 0.72916,1.8125 0.75,0.66667 2.375,0.66667 l -0.1875,0.77083 h -9.20833 l 0.1875,-0.77083 q 1.1875,0 1.6875,-0.20834 0.875,-0.33333 1.70833,-1.27083 0.83334,-0.95833 1.35417,-2.75 l 5.97917,-20.52083 q -1.10417,-1.22917 -1.85417,-1.58334 -0.75,-0.35416 -2.25,-0.375 l 0.22917,-0.77083 z"
               style="font-style:italic;font-variant:normal;font-weight:bold;font-stretch:normal;font-size:42.66666794px;font-family:'Times New Roman';-inkscape-font-specification:'Times New Roman, Bold Italic';font-variant-ligatures:normal;font-variant-caps:normal;font-variant-numeric:normal;font-feature-settings:normal;text-align:start;writing-mode:lr-tb;text-anchor:start;fill:#fbd400;fill-opacity:1;stroke:#766400;stroke-width:1;stroke-miterlimit:4;stroke-dasharray:none;stroke-opacity:1"
               id="path4613" />
            <path
               d="m 447.31706,176.00628 h 22.72917 l -2.14584,7.60417 h -0.75 q 0.0417,-0.60417 0.0417,-1.0625 0,-2.16667 -1.27083,-3.35417 -1.27084,-1.20833 -4.29167,-1.375 l -6.29167,21.27083 q -0.52083,1.77084 -0.52083,2.625 0,0.79167 0.64583,1.27084 0.64584,0.45833 2.625,0.5 l -0.1875,0.77083 h -14.02083 l 0.25,-0.77083 q 2.14583,0 3.125,-0.79167 0.97917,-0.8125 1.79167,-3.60417 l 6.29166,-21.27083 q -3.25,0.10417 -5.4375,1.41667 -2.1875,1.3125 -4,4.375 h -0.8125 z"
               style="font-style:italic;font-variant:normal;font-weight:bold;font-stretch:normal;font-size:42.66666794px;font-family:'Times New Roman';-inkscape-font-specification:'Times New Roman, Bold Italic';font-variant-ligatures:normal;font-variant-caps:normal;font-variant-numeric:normal;font-feature-settings:normal;text-align:start;writing-mode:lr-tb;text-anchor:start;fill:#fbd400;fill-opacity:1;stroke:#766400;stroke-width:1;stroke-miterlimit:4;stroke-dasharray:none;stroke-opacity:1"
               id="path4615" />
          </g>
        </g>
      </g>
      <g
         id="g4944"
         transform="translate(0,-5.8208336)">
        <ellipse
           transform="rotate(-40.376104)"
           ry="39.477741"
           rx="39.477745"
           cy="179.7491"
           cx="57.36628"
           id="path4518-2-5"
           style="fill:#766400;fill-opacity:0.72941176;stroke:none;stroke-width:0.5;stroke-linecap:round;stroke-miterlimit:4;stroke-dasharray:none;stroke-opacity:1" />
        <ellipse
           transform="rotate(-40.376104)"
           ry="39.477741"
           rx="39.477745"
           cy="179.54526"
           cx="59.880341"
           id="path4518-2"
           style="fill:#fbd400;fill-opacity:1;stroke:#816d00;stroke-width:0.5;stroke-linecap:round;stroke-miterlimit:4;stroke-dasharray:none;stroke-opacity:1" />
        <circle
           transform="rotate(-40.376104)"
           r="35"
           cy="179.54526"
           cx="59.880341"
           id="path4518-3-9"
           style="fill:#e8c300;fill-opacity:1;stroke:#c0a400;stroke-width:0.92604148;stroke-linecap:round;stroke-miterlimit:4;stroke-dasharray:none;stroke-opacity:1" />
        <g
           aria-label="0"
           transform="matrix(0.20156184,-0.17139767,0.17139767,0.20156184,50.947122,98.620219)"
           style="font-style:italic;font-variant:normal;font-weight:bold;font-stretch:normal;font-size:40px;line-height:1.25;font-family:'Times New Roman';-inkscape-font-specification:'Times New Roman, Bold Italic';font-variant-ligatures:normal;font-variant-caps:normal;font-variant-numeric:normal;font-feature-settings:normal;text-align:start;letter-spacing:0px;word-spacing:0px;writing-mode:lr-tb;text-anchor:start;fill:#fbd400;fill-opacity:1;stroke:#766400;stroke-width:1;stroke-miterlimit:4;stroke-dasharray:none;stroke-opacity:1"
           id="flowRoot4535-7">
          <path
             d="m 406.36914,187.57353 q 9.09375,0 15.5625,5.34375 6.46875,5.25 9.28125,14.0625 2.90625,8.8125 2.90625,17.4375 0,14.90625 -3.9375,30.75 -3.84375,15.84375 -10.78125,29.15625 -6.9375,13.3125 -15.375,22.3125 -5.34375,5.625 -13.03125,9.46875 -7.59375,3.84375 -15.5625,3.84375 -7.40625,0 -13.5,-4.5 -6,-4.5 -9.46875,-13.125 -3.46875,-8.625 -3.46875,-18.46875 0,-21.5625 7.78125,-43.21875 6.46875,-18 16.03125,-31.03125 9.65625,-13.125 17.53125,-17.53125 7.96875,-4.5 16.03125,-4.5 z m 0.65625,6.375 q -2.8125,0 -4.875,1.125 -2.0625,1.03125 -4.5,4.3125 -2.34375,3.28125 -5.90625,13.96875 -6.65625,19.5 -14.71875,47.625 -6.1875,21.65625 -7.40625,27.75 -1.78125,8.71875 -1.78125,15.28125 0,4.59375 2.4375,7.21875 2.53125,2.625 6.1875,2.625 3.84375,0 6.28125,-2.0625 4.96875,-4.21875 8.25,-14.25 7.6875,-23.53125 19.40625,-64.78125 5.15625,-18.1875 5.15625,-28.59375 0,-4.78125 -2.53125,-7.5 -2.4375,-2.71875 -6,-2.71875 z"
             style="font-style:italic;font-variant:normal;font-weight:bold;font-stretch:normal;font-size:192px;font-family:'Times New Roman';-inkscape-font-specification:'Times New Roman, Bold Italic';font-variant-ligatures:normal;font-variant-caps:normal;font-variant-numeric:normal;font-feature-settings:normal;text-align:start;writing-mode:lr-tb;text-anchor:start;fill:#fbd400;fill-opacity:1;stroke:#766400;stroke-width:1;stroke-miterlimit:4;stroke-dasharray:none;stroke-opacity:1"
             id="path4618-9" />
        </g>
        <g
           aria-label="1"
           transform="matrix(0.20156184,-0.17139767,0.17139767,0.20156184,36.894541,111.02564)"
           style="font-style:italic;font-variant:normal;font-weight:bold;font-stretch:normal;font-size:40px;line-height:1.25;font-family:'Times New Roman';-inkscape-font-specification:'Times New Roman, Bold Italic';font-variant-ligatures:normal;font-variant-caps:normal;font-variant-numeric:normal;font-feature-settings:normal;text-align:start;letter-spacing:0px;word-spacing:0px;writing-mode:lr-tb;text-anchor:start;fill:#fbd400;fill-opacity:1;stroke:#766400;stroke-width:1;stroke-miterlimit:4;stroke-dasharray:none;stroke-opacity:1"
           id="flowRoot4535-9-7">
          <path
             d="m 423.80664,187.57353 -31.03125,106.6875 q -2.4375,8.34375 -2.4375,10.59375 0,2.25 1.6875,4.6875 1.78125,2.34375 3.75,3.09375 2.0625,0.65625 12.1875,1.21875 l -1.03125,3.46875 h -64.03125 l 1.03125,-3.46875 q 9.5625,-0.1875 13.3125,-1.59375 3.75,-1.40625 6.09375,-4.59375 2.4375,-3.1875 5.4375,-13.40625 l 18.375,-63.375 q 4.21875,-14.4375 4.40625,-15.28125 0.5625,-2.4375 0.5625,-4.59375 0,-4.21875 -2.625,-6.65625 -2.53125,-2.53125 -7.3125,-2.53125 -2.34375,0 -9.28125,0.75 l -0.75,-3.46875 47.71875,-11.53125 z"
             style="font-style:italic;font-variant:normal;font-weight:bold;font-stretch:normal;font-size:192px;font-family:'Times New Roman';-inkscape-font-specification:'Times New Roman, Bold Italic';font-variant-ligatures:normal;font-variant-caps:normal;font-variant-numeric:normal;font-feature-settings:normal;text-align:start;writing-mode:lr-tb;text-anchor:start;fill:#fbd400;fill-opacity:1;stroke:#766400;stroke-width:1;stroke-miterlimit:4;stroke-dasharray:none;stroke-opacity:1"
             id="path4621-9" />
        </g>
        <g
           id="flowRoot4535-9-6-3"
           style="font-style:italic;font-variant:normal;font-weight:bold;font-stretch:normal;font-size:40px;line-height:1.25;font-family:'Times New Roman';-inkscape-font-specification:'Times New Roman, Bold Italic';font-variant-ligatures:normal;font-variant-caps:normal;font-variant-numeric:normal;font-feature-settings:normal;text-align:start;letter-spacing:0px;word-spacing:0px;writing-mode:lr-tb;text-anchor:start;fill:#fbd400;fill-opacity:1;stroke:#766400;stroke-width:1;stroke-miterlimit:4;stroke-dasharray:none;stroke-opacity:1"
           transform="matrix(0.20156184,-0.17139767,0.17139767,0.20156184,66.05708,143.41354)"
           aria-label="CENT">
          <path
             id="path4609-8"
             style="font-style:italic;font-variant:normal;font-weight:bold;font-stretch:normal;font-size:64px;font-family:'Times New Roman';-inkscape-font-specification:'Times New Roman, Bold Italic';font-variant-ligatures:normal;font-variant-caps:normal;font-variant-numeric:normal;font-feature-settings:normal;text-align:start;writing-mode:lr-tb;text-anchor:start;fill:#fbd400;fill-opacity:1;stroke:#766400;stroke-width:1;stroke-miterlimit:4;stroke-dasharray:none;stroke-opacity:1"
             d="m 384.52539,160.91253 -3.125,13.46875 h -1.21875 q -0.21875,-5.5 -2.71875,-8.1875 -2.46875,-2.71875 -6.46875,-2.71875 -4.3125,0 -8.59375,3.6875 -4.28125,3.6875 -7.25,11.28125 -2.40625,6.15625 -2.40625,12.15625 0,5.375 2.625,8.21875 2.65625,2.8125 7.25,2.8125 3.71875,0 6.78125,-1.625 3.0625,-1.625 6.1875,-5.28125 h 1.5 q -3.875,5.8125 -7.84375,8.15625 -3.9375,2.34375 -9.65625,2.34375 -7.65625,0 -12.34375,-4.625 -4.65625,-4.65625 -4.65625,-12.125 0,-7 3.71875,-13.34375 3.71875,-6.375 10.6875,-10.28125 7,-3.9375 13.90625,-3.9375 2.625,0 6.53125,1.125 2,0.5625 2.78125,0.5625 1.5625,0 3.15625,-1.6875 z" />
          <path
             id="path4611-2"
             style="font-style:italic;font-variant:normal;font-weight:bold;font-stretch:normal;font-size:42.66666794px;font-family:'Times New Roman';-inkscape-font-specification:'Times New Roman, Bold Italic';font-variant-ligatures:normal;font-variant-caps:normal;font-variant-numeric:normal;font-feature-settings:normal;text-align:start;writing-mode:lr-tb;text-anchor:start;fill:#fbd400;fill-opacity:1;stroke:#766400;stroke-width:1;stroke-miterlimit:4;stroke-dasharray:none;stroke-opacity:1"
             d="m 397.27539,177.56878 -3.14583,10.95833 h 0.95833 q 3.79167,0 5.52083,-1 1.75,-1 2.95834,-3.54166 h 0.77083 l -3.16667,11 h -0.72916 q 0.1875,-1.10417 0.1875,-1.79167 0,-1.14583 -0.6875,-1.875 -0.66667,-0.72917 -1.75,-1.04167 -0.70834,-0.20833 -2.9375,-0.20833 h -1.625 l -2.70834,9.47917 q -0.35416,1.25 -0.35416,1.85416 0,0.47917 0.45833,0.77084 0.66667,0.41666 2.52083,0.41666 3.5625,0 6.70834,-1.5 3.14583,-1.52083 5.64583,-4.58333 h 0.85417 l -2.9375,7.75 h -24.16667 l 0.25,-0.77083 q 2.125,0 3.10417,-0.79167 0.97916,-0.8125 1.77083,-3.54167 l 5.3125,-18.1875 q 0.4375,-1.52083 0.4375,-2.39583 0,-0.79167 -0.5625,-1.20833 -0.5625,-0.4375 -2.5625,-0.58334 l 0.22917,-0.77083 h 22.52083 l -1.8125,7.0625 h -0.75 q -0.0833,-2.08333 -0.64583,-2.9375 -0.875,-1.33333 -2.33334,-1.9375 -1.4375,-0.625 -4.6875,-0.625 z" />
          <path
             id="path4613-4"
             style="font-style:italic;font-variant:normal;font-weight:bold;font-stretch:normal;font-size:42.66666794px;font-family:'Times New Roman';-inkscape-font-specification:'Times New Roman, Bold Italic';font-variant-ligatures:normal;font-variant-caps:normal;font-variant-numeric:normal;font-feature-settings:normal;text-align:start;writing-mode:lr-tb;text-anchor:start;fill:#fbd400;fill-opacity:1;stroke:#766400;stroke-width:1;stroke-miterlimit:4;stroke-dasharray:none;stroke-opacity:1"
             d="m 424.85872,176.00628 8.83334,18.83333 3.97916,-13.66666 q 0.3125,-1.125 0.3125,-2 0,-1.04167 -0.66666,-1.66667 -0.64584,-0.625 -2.25,-0.72917 l 0.22916,-0.77083 h 8.95834 l -0.20834,0.77083 q -1.70833,0.10417 -2.83333,0.95834 -1.10417,0.85416 -1.875,3.4375 l -6.89583,23.39583 h -0.79167 l -11.33333,-24.08333 -5.47917,18.77083 q -0.27083,0.97917 -0.27083,1.75 0,1.125 0.72916,1.8125 0.75,0.66667 2.375,0.66667 l -0.1875,0.77083 h -9.20833 l 0.1875,-0.77083 q 1.1875,0 1.6875,-0.20834 0.875,-0.33333 1.70833,-1.27083 0.83334,-0.95833 1.35417,-2.75 l 5.97917,-20.52083 q -1.10417,-1.22917 -1.85417,-1.58334 -0.75,-0.35416 -2.25,-0.375 l 0.22917,-0.77083 z" />
          <path
             id="path4615-3"
             style="font-style:italic;font-variant:normal;font-weight:bold;font-stretch:normal;font-size:42.66666794px;font-family:'Times New Roman';-inkscape-font-specification:'Times New Roman, Bold Italic';font-variant-ligatures:normal;font-variant-caps:normal;font-variant-numeric:normal;font-feature-settings:normal;text-align:start;writing-mode:lr-tb;text-anchor:start;fill:#fbd400;fill-opacity:1;stroke:#766400;stroke-width:1;stroke-miterlimit:4;stroke-dasharray:none;stroke-opacity:1"
             d="m 447.31706,176.00628 h 22.72917 l -2.14584,7.60417 h -0.75 q 0.0417,-0.60417 0.0417,-1.0625 0,-2.16667 -1.27083,-3.35417 -1.27084,-1.20833 -4.29167,-1.375 l -6.29167,21.27083 q -0.52083,1.77084 -0.52083,2.625 0,0.79167 0.64583,1.27084 0.64584,0.45833 2.625,0.5 l -0.1875,0.77083 h -14.02083 l 0.25,-0.77083 q 2.14583,0 3.125,-0.79167 0.97917,-0.8125 1.79167,-3.60417 l 6.29166,-21.27083 q -3.25,0.10417 -5.4375,1.41667 -2.1875,1.3125 -4,4.375 h -0.8125 z" />
        </g>
      </g>
      <g
         id="g4568"
         transform="translate(5.2916669,-1.5875)">
        <ellipse
           transform="rotate(-40.376104)"
           ry="39.477741"
           rx="39.477745"
           cy="179.257"
           cx="-28.564672"
           id="path4518-2-5-1"
           style="fill:#766400;fill-opacity:0.72767861;stroke:none;stroke-width:0.5;stroke-linecap:round;stroke-miterlimit:4;stroke-dasharray:none;stroke-opacity:1" />
        <g
           transform="rotate(-40.376104,246.06063,112.02633)"
           id="g4648-0">
          <ellipse
             style="fill:#fbd400;fill-opacity:1;stroke:#816d00;stroke-width:0.5;stroke-linecap:round;stroke-miterlimit:4;stroke-dasharray:none;stroke-opacity:1"
             id="path4518-25"
             cx="105"
             cy="46.830349"
             rx="39.477745"
             ry="39.477741" />
          <circle
             style="fill:#e8c300;fill-opacity:1;stroke:#c0a400;stroke-width:0.92604148;stroke-linecap:round;stroke-miterlimit:4;stroke-dasharray:none;stroke-opacity:1"
             id="path4518-3-0"
             cx="105"
             cy="46.830349"
             r="35" />
          <g
             id="flowRoot4535-4"
             style="font-style:italic;font-variant:normal;font-weight:bold;font-stretch:normal;font-size:40px;line-height:1.25;font-family:'Times New Roman';-inkscape-font-specification:'Times New Roman, Bold Italic';font-variant-ligatures:normal;font-variant-caps:normal;font-variant-numeric:normal;font-feature-settings:normal;text-align:start;letter-spacing:0px;word-spacing:0px;writing-mode:lr-tb;text-anchor:start;fill:#fbd400;fill-opacity:1;stroke:#766400;stroke-width:1;stroke-miterlimit:4;stroke-dasharray:none;stroke-opacity:1"
             transform="matrix(0.26458333,0,0,0.26458333,20.045214,-24.581529)"
             aria-label="0">
            <path
               id="path4618-96"
               style="font-style:italic;font-variant:normal;font-weight:bold;font-stretch:normal;font-size:192px;font-family:'Times New Roman';-inkscape-font-specification:'Times New Roman, Bold Italic';font-variant-ligatures:normal;font-variant-caps:normal;font-variant-numeric:normal;font-feature-settings:normal;text-align:start;writing-mode:lr-tb;text-anchor:start;fill:#fbd400;fill-opacity:1;stroke:#766400;stroke-width:1;stroke-miterlimit:4;stroke-dasharray:none;stroke-opacity:1"
               d="m 406.36914,187.57353 q 9.09375,0 15.5625,5.34375 6.46875,5.25 9.28125,14.0625 2.90625,8.8125 2.90625,17.4375 0,14.90625 -3.9375,30.75 -3.84375,15.84375 -10.78125,29.15625 -6.9375,13.3125 -15.375,22.3125 -5.34375,5.625 -13.03125,9.46875 -7.59375,3.84375 -15.5625,3.84375 -7.40625,0 -13.5,-4.5 -6,-4.5 -9.46875,-13.125 -3.46875,-8.625 -3.46875,-18.46875 0,-21.5625 7.78125,-43.21875 6.46875,-18 16.03125,-31.03125 9.65625,-13.125 17.53125,-17.53125 7.96875,-4.5 16.03125,-4.5 z m 0.65625,6.375 q -2.8125,0 -4.875,1.125 -2.0625,1.03125 -4.5,4.3125 -2.34375,3.28125 -5.90625,13.96875 -6.65625,19.5 -14.71875,47.625 -6.1875,21.65625 -7.40625,27.75 -1.78125,8.71875 -1.78125,15.28125 0,4.59375 2.4375,7.21875 2.53125,2.625 6.1875,2.625 3.84375,0 6.28125,-2.0625 4.96875,-4.21875 8.25,-14.25 7.6875,-23.53125 19.40625,-64.78125 5.15625,-18.1875 5.15625,-28.59375 0,-4.78125 -2.53125,-7.5 -2.4375,-2.71875 -6,-2.71875 z" />
          </g>
          <g
             id="flowRoot4535-9-2"
             style="font-style:italic;font-variant:normal;font-weight:bold;font-stretch:normal;font-size:40px;line-height:1.25;font-family:'Times New Roman';-inkscape-font-specification:'Times New Roman, Bold Italic';font-variant-ligatures:normal;font-variant-caps:normal;font-variant-numeric:normal;font-feature-settings:normal;text-align:start;letter-spacing:0px;word-spacing:0px;writing-mode:lr-tb;text-anchor:start;fill:#fbd400;fill-opacity:1;stroke:#766400;stroke-width:1;stroke-miterlimit:4;stroke-dasharray:none;stroke-opacity:1"
             transform="matrix(0.26458333,0,0,0.26458333,1.3035753,-24.234263)"
             aria-label="1">
            <path
               id="path4621-3"
               style="font-style:italic;font-variant:normal;font-weight:bold;font-stretch:normal;font-size:192px;font-family:'Times New Roman';-inkscape-font-specification:'Times New Roman, Bold Italic';font-variant-ligatures:normal;font-variant-caps:normal;font-variant-numeric:normal;font-feature-settings:normal;text-align:start;writing-mode:lr-tb;text-anchor:start;fill:#fbd400;fill-opacity:1;stroke:#766400;stroke-width:1;stroke-miterlimit:4;stroke-dasharray:none;stroke-opacity:1"
               d="m 423.80664,187.57353 -31.03125,106.6875 q -2.4375,8.34375 -2.4375,10.59375 0,2.25 1.6875,4.6875 1.78125,2.34375 3.75,3.09375 2.0625,0.65625 12.1875,1.21875 l -1.03125,3.46875 h -64.03125 l 1.03125,-3.46875 q 9.5625,-0.1875 13.3125,-1.59375 3.75,-1.40625 6.09375,-4.59375 2.4375,-3.1875 5.4375,-13.40625 l 18.375,-63.375 q 4.21875,-14.4375 4.40625,-15.28125 0.5625,-2.4375 0.5625,-4.59375 0,-4.21875 -2.625,-6.65625 -2.53125,-2.53125 -7.3125,-2.53125 -2.34375,0 -9.28125,0.75 l -0.75,-3.46875 47.71875,-11.53125 z" />
          </g>
          <g
             aria-label="CENT"
             transform="matrix(0.26458333,0,0,0.26458333,2.5388969,19.330669)"
             style="font-style:italic;font-variant:normal;font-weight:bold;font-stretch:normal;font-size:40px;line-height:1.25;font-family:'Times New Roman';-inkscape-font-specification:'Times New Roman, Bold Italic';font-variant-ligatures:normal;font-variant-caps:normal;font-variant-numeric:normal;font-feature-settings:normal;text-align:start;letter-spacing:0px;word-spacing:0px;writing-mode:lr-tb;text-anchor:start;fill:#fbd400;fill-opacity:1;stroke:#766400;stroke-width:1;stroke-miterlimit:4;stroke-dasharray:none;stroke-opacity:1"
             id="flowRoot4535-9-6-9">
            <path
               d="m 384.52539,160.91253 -3.125,13.46875 h -1.21875 q -0.21875,-5.5 -2.71875,-8.1875 -2.46875,-2.71875 -6.46875,-2.71875 -4.3125,0 -8.59375,3.6875 -4.28125,3.6875 -7.25,11.28125 -2.40625,6.15625 -2.40625,12.15625 0,5.375 2.625,8.21875 2.65625,2.8125 7.25,2.8125 3.71875,0 6.78125,-1.625 3.0625,-1.625 6.1875,-5.28125 h 1.5 q -3.875,5.8125 -7.84375,8.15625 -3.9375,2.34375 -9.65625,2.34375 -7.65625,0 -12.34375,-4.625 -4.65625,-4.65625 -4.65625,-12.125 0,-7 3.71875,-13.34375 3.71875,-6.375 10.6875,-10.28125 7,-3.9375 13.90625,-3.9375 2.625,0 6.53125,1.125 2,0.5625 2.78125,0.5625 1.5625,0 3.15625,-1.6875 z"
               style="font-style:italic;font-variant:normal;font-weight:bold;font-stretch:normal;font-size:64px;font-family:'Times New Roman';-inkscape-font-specification:'Times New Roman, Bold Italic';font-variant-ligatures:normal;font-variant-caps:normal;font-variant-numeric:normal;font-feature-settings:normal;text-align:start;writing-mode:lr-tb;text-anchor:start;fill:#fbd400;fill-opacity:1;stroke:#766400;stroke-width:1;stroke-miterlimit:4;stroke-dasharray:none;stroke-opacity:1"
               id="path4609-7" />
            <path
               d="m 397.27539,177.56878 -3.14583,10.95833 h 0.95833 q 3.79167,0 5.52083,-1 1.75,-1 2.95834,-3.54166 h 0.77083 l -3.16667,11 h -0.72916 q 0.1875,-1.10417 0.1875,-1.79167 0,-1.14583 -0.6875,-1.875 -0.66667,-0.72917 -1.75,-1.04167 -0.70834,-0.20833 -2.9375,-0.20833 h -1.625 l -2.70834,9.47917 q -0.35416,1.25 -0.35416,1.85416 0,0.47917 0.45833,0.77084 0.66667,0.41666 2.52083,0.41666 3.5625,0 6.70834,-1.5 3.14583,-1.52083 5.64583,-4.58333 h 0.85417 l -2.9375,7.75 h -24.16667 l 0.25,-0.77083 q 2.125,0 3.10417,-0.79167 0.97916,-0.8125 1.77083,-3.54167 l 5.3125,-18.1875 q 0.4375,-1.52083 0.4375,-2.39583 0,-0.79167 -0.5625,-1.20833 -0.5625,-0.4375 -2.5625,-0.58334 l 0.22917,-0.77083 h 22.52083 l -1.8125,7.0625 h -0.75 q -0.0833,-2.08333 -0.64583,-2.9375 -0.875,-1.33333 -2.33334,-1.9375 -1.4375,-0.625 -4.6875,-0.625 z"
               style="font-style:italic;font-variant:normal;font-weight:bold;font-stretch:normal;font-size:42.66666794px;font-family:'Times New Roman';-inkscape-font-specification:'Times New Roman, Bold Italic';font-variant-ligatures:normal;font-variant-caps:normal;font-variant-numeric:normal;font-feature-settings:normal;text-align:start;writing-mode:lr-tb;text-anchor:start;fill:#fbd400;fill-opacity:1;stroke:#766400;stroke-width:1;stroke-miterlimit:4;stroke-dasharray:none;stroke-opacity:1"
               id="path4611-3" />
            <path
               d="m 424.85872,176.00628 8.83334,18.83333 3.97916,-13.66666 q 0.3125,-1.125 0.3125,-2 0,-1.04167 -0.66666,-1.66667 -0.64584,-0.625 -2.25,-0.72917 l 0.22916,-0.77083 h 8.95834 l -0.20834,0.77083 q -1.70833,0.10417 -2.83333,0.95834 -1.10417,0.85416 -1.875,3.4375 l -6.89583,23.39583 h -0.79167 l -11.33333,-24.08333 -5.47917,18.77083 q -0.27083,0.97917 -0.27083,1.75 0,1.125 0.72916,1.8125 0.75,0.66667 2.375,0.66667 l -0.1875,0.77083 h -9.20833 l 0.1875,-0.77083 q 1.1875,0 1.6875,-0.20834 0.875,-0.33333 1.70833,-1.27083 0.83334,-0.95833 1.35417,-2.75 l 5.97917,-20.52083 q -1.10417,-1.22917 -1.85417,-1.58334 -0.75,-0.35416 -2.25,-0.375 l 0.22917,-0.77083 z"
               style="font-style:italic;font-variant:normal;font-weight:bold;font-stretch:normal;font-size:42.66666794px;font-family:'Times New Roman';-inkscape-font-specification:'Times New Roman, Bold Italic';font-variant-ligatures:normal;font-variant-caps:normal;font-variant-numeric:normal;font-feature-settings:normal;text-align:start;writing-mode:lr-tb;text-anchor:start;fill:#fbd400;fill-opacity:1;stroke:#766400;stroke-width:1;stroke-miterlimit:4;stroke-dasharray:none;stroke-opacity:1"
               id="path4613-7" />
            <path
               d="m 447.31706,176.00628 h 22.72917 l -2.14584,7.60417 h -0.75 q 0.0417,-0.60417 0.0417,-1.0625 0,-2.16667 -1.27083,-3.35417 -1.27084,-1.20833 -4.29167,-1.375 l -6.29167,21.27083 q -0.52083,1.77084 -0.52083,2.625 0,0.79167 0.64583,1.27084 0.64584,0.45833 2.625,0.5 l -0.1875,0.77083 h -14.02083 l 0.25,-0.77083 q 2.14583,0 3.125,-0.79167 0.97917,-0.8125 1.79167,-3.60417 l 6.29166,-21.27083 q -3.25,0.10417 -5.4375,1.41667 -2.1875,1.3125 -4,4.375 h -0.8125 z"
               style="font-style:italic;font-variant:normal;font-weight:bold;font-stretch:normal;font-size:42.66666794px;font-family:'Times New Roman';-inkscape-font-specification:'Times New Roman, Bold Italic';font-variant-ligatures:normal;font-variant-caps:normal;font-variant-numeric:normal;font-feature-settings:normal;text-align:start;writing-mode:lr-tb;text-anchor:start;fill:#fbd400;fill-opacity:1;stroke:#766400;stroke-width:1;stroke-miterlimit:4;stroke-dasharray:none;stroke-opacity:1"
               id="path4615-8" />
          </g>
        </g>
      </g>
    </g>
  </g>
</svg>
